<svg xmlns="http://www.w3.org/2000/svg" xmlns:xlink="http://www.w3.org/1999/xlink" width="2000" zoomAndPan="magnify" viewBox="0 0 1500 1499.999933" height="2000" preserveAspectRatio="xMidYMid meet" version="1.0"><defs><clipPath id="3ce6165356"><path d="M 263 378.152344 L 1238 378.152344 L 1238 1121 L 263 1121 Z M 263 378.152344 " clip-rule="nonzero"/></clipPath></defs><rect x="-150" width="1800" fill="#ffffff" y="-149.999993" height="1799.99992" fill-opacity="1"/><rect x="-150" width="1800" fill="#2563eb" y="-149.999993" height="1799.99992" fill-opacity="1"/><g clip-path="url(#3ce6165356)"><path fill="#ffffff" d="M 683.964844 981.261719 L 689.660156 981.261719 C 688.347656 975.726562 688.085938 970.125 680.949219 968.863281 C 678.621094 968.453125 678.28125 965.859375 677.460938 964.085938 C 674.773438 958.28125 672.105469 952.480469 669.25 946.746094 C 667.140625 942.507812 666.128906 937.621094 664.191406 933.160156 C 663.269531 931.039062 662.992188 928.648438 661.214844 926.914062 C 660.597656 926.3125 660.265625 925.398438 659.621094 924.839844 C 656.347656 922.023438 663.027344 917.527344 657.96875 915.101562 C 653.867188 913.132812 654.230469 908.855469 652.8125 905.445312 C 651.980469 902.769531 655.859375 898.945312 650.449219 897.164062 C 651.308594 900.140625 652.082031 902.828125 652.859375 905.515625 C 647.609375 901.359375 648.378906 894.242188 644.851562 889.242188 C 650.109375 883.292969 643.785156 881.707031 641.109375 878.359375 C 638.839844 875.523438 637.519531 871.824219 636.226562 868.34375 C 635.171875 865.507812 639.613281 866.441406 639.636719 863.429688 C 637.972656 861.460938 632.671875 861.777344 634.546875 855.890625 C 635.949219 851.496094 629.933594 853.359375 627.238281 848.96875 C 627.132812 856.285156 622.53125 857.847656 619.585938 860.84375 C 612.253906 868.3125 604.757812 875.726562 597.972656 883.589844 C 591.90625 890.625 583.964844 895.773438 578.839844 903.503906 C 575.640625 908.339844 571.503906 911.917969 567.226562 915.6875 C 562.714844 919.664062 560.261719 926.273438 555.429688 929.519531 C 548.226562 934.351562 544.75 942.585938 537.382812 946.9375 C 536.410156 947.515625 535.144531 948.335938 534.894531 949.277344 C 532.988281 956.488281 525.820312 959.042969 521.941406 964.296875 C 518.101562 969.503906 511.242188 971.609375 508.902344 978.160156 C 508.234375 980.035156 506.164062 981.21875 504.101562 981.734375 C 502.453125 982.148438 501.667969 983.082031 501.410156 984.710938 C 500.554688 990.054688 496.996094 993.792969 492.882812 996.484375 C 486.46875 1000.6875 482.320312 1007.023438 476.789062 1012.023438 C 468.96875 1019.101562 461.632812 1026.722656 453.757812 1033.738281 C 452.046875 1035.261719 450.511719 1036.542969 449.125 1038.488281 C 447.03125 1041.425781 444.832031 1044.359375 441.640625 1046.6875 C 438.261719 1049.152344 435.546875 1052.84375 433.105469 1056.558594 C 429.863281 1061.386719 425.976562 1065.617188 421.445312 1069.261719 C 409.671875 1078.988281 399.472656 1090.421875 389.976562 1102.402344 C 388.613281 1104.121094 388.535156 1106.757812 387.910156 1108.957031 C 386.855469 1112.648438 385.5 1116.144531 380.945312 1118.132812 C 373.523438 1121.367188 373.96875 1121.835938 369.085938 1114.496094 C 366.929688 1111.253906 362.574219 1110.078125 360.527344 1106.371094 C 359.125 1103.835938 356.480469 1101.941406 355.300781 1099.347656 C 352.671875 1093.558594 349.3125 1089.886719 342.359375 1092.171875 C 341.078125 1092.59375 339.859375 1092.070312 339.8125 1090.640625 C 339.726562 1088.003906 337.808594 1086.65625 336.511719 1084.757812 C 334.507812 1081.832031 338.953125 1083.324219 338.949219 1082.074219 C 338.945312 1078.714844 337.757812 1075.695312 334.289062 1074.480469 C 326.328125 1071.691406 322.605469 1065.367188 320.519531 1057.875 C 319.882812 1055.601562 319.25 1055.273438 316.957031 1054.449219 C 313.90625 1053.355469 311.414062 1049.980469 309.316406 1047.121094 C 304.371094 1040.371094 299.539062 1033.5 295.242188 1026.332031 C 293.976562 1024.222656 288.496094 1023.210938 292.347656 1018.980469 C 284.382812 1018.949219 284.785156 1010.191406 279.929688 1007.121094 C 277.203125 1005.398438 275.304688 1003.804688 275.082031 1000.484375 C 274.910156 997.925781 273.28125 996.359375 271.105469 995.089844 C 266.460938 992.386719 267.773438 985.773438 263.257812 982.789062 C 262.644531 982.386719 263.964844 980.609375 265.027344 980.207031 C 268.492188 978.890625 272.316406 978.375 274.699219 981.6875 C 277.691406 985.847656 281.203125 988.980469 285.878906 991.007812 C 286.730469 991.378906 287.09375 992.882812 287.679688 993.863281 C 289.800781 997.414062 292.347656 1000.675781 295.898438 1002.800781 C 299.886719 1005.183594 301.484375 1009.425781 304.386719 1012.59375 C 312.226562 1021.148438 322.628906 1027.183594 328.867188 1037.34375 C 334.371094 1037.714844 334.054688 1044.082031 338.125 1046.230469 C 342.050781 1048.304688 343.179688 1052.878906 345.3125 1056.582031 C 349.300781 1063.507812 356.886719 1063.753906 361.191406 1057.171875 C 363.523438 1053.605469 367.003906 1050.875 368.496094 1046.691406 C 368.960938 1045.386719 370.574219 1044.5 371.070312 1043.195312 C 372.816406 1038.613281 380.914062 1042.664062 380.730469 1036.398438 C 380.574219 1030.980469 384.972656 1029.121094 387.652344 1026.214844 C 390.613281 1023.003906 392.832031 1019.074219 396.191406 1016.371094 C 407.699219 1007.109375 416.03125 994.808594 427.054688 984.933594 C 435.984375 976.929688 443.785156 967.179688 451.621094 957.789062 C 457.199219 951.113281 462.757812 944.335938 471.511719 941.488281 C 472.035156 941.316406 472.917969 940.871094 472.898438 940.601562 C 472.277344 930.707031 481.21875 927.203125 486.445312 921.875 C 501.984375 906.03125 517.65625 890.335938 532.15625 873.519531 C 533.304688 872.1875 534.160156 870.441406 535.566406 869.515625 C 549.722656 860.210938 558.046875 845.492188 569.230469 833.4375 C 573.597656 828.726562 577.800781 823.851562 581.863281 818.875 C 584.117188 816.113281 585.808594 812.785156 590.300781 814.738281 C 590.761719 814.9375 591.789062 814.875 591.941406 814.601562 C 596.765625 805.800781 604.027344 813.328125 610.015625 812.222656 C 612.445312 811.773438 614.308594 813.128906 616.007812 809.859375 C 617.398438 807.175781 619.710938 805.707031 620.648438 811.105469 C 621.140625 813.925781 623.734375 816.703125 628.257812 816.734375 C 633.769531 816.777344 637.605469 819.171875 640.917969 825.054688 C 649.410156 840.136719 657.554688 855.386719 665.351562 870.800781 C 670.65625 881.292969 674.710938 892.578125 682.320312 901.925781 C 684.84375 905.027344 686.375 909.003906 688.03125 912.722656 C 694.425781 927.058594 702.90625 940.253906 710.25 954.0625 C 712.914062 959.078125 715.789062 964.210938 716.886719 969.9375 C 717.304688 972.105469 718.097656 973.859375 720.003906 974.949219 C 721.644531 975.886719 722.703125 977.121094 722.90625 979.050781 C 723.605469 985.6875 729.214844 989.015625 732.824219 993.683594 C 734.714844 996.132812 736.703125 996.214844 738.371094 993.472656 C 740.121094 990.597656 742.261719 988.339844 745.792969 987.910156 C 746.839844 987.78125 747.097656 987.09375 747.503906 986.242188 C 752.0625 976.640625 760.75 970.378906 767.066406 962.191406 C 772.230469 961.914062 771.4375 955.578125 775.320312 954.050781 C 779.851562 952.265625 779.285156 947.222656 781.714844 944.015625 C 783.730469 941.359375 786.3125 939.550781 788.574219 937.363281 C 797.46875 928.765625 804.511719 918.550781 813.417969 909.894531 C 817.890625 905.546875 821.027344 899.222656 824.386719 893.621094 C 828.058594 887.496094 833.273438 882.8125 837.535156 877.289062 C 842.867188 870.378906 848.824219 863.949219 852.832031 856.117188 C 854.503906 852.84375 857.449219 850.839844 859.828125 848.296875 C 872.148438 835.113281 882.503906 820.359375 893.832031 806.386719 C 898.175781 800.972656 902.839844 795.851562 907.824219 791.023438 C 915.6875 783.507812 922.089844 774.644531 930.019531 767.367188 C 948.875 750.074219 962.382812 728.375 979.121094 709.355469 C 987.296875 700.0625 994.246094 689.726562 1001.507812 679.660156 C 1008.449219 670.035156 1017.125 661.667969 1024.976562 652.695312 C 1029.476562 647.558594 1035.285156 646.46875 1041.660156 647.023438 C 1042.820312 647.125 1043.953125 647.773438 1045.089844 647.75 C 1048.535156 647.679688 1052.710938 648.511719 1054.660156 644.949219 C 1056.933594 640.808594 1050.976562 640.46875 1050.226562 637.535156 C 1052.753906 632.09375 1057.777344 631.910156 1062.472656 631.6875 C 1063.503906 630.027344 1062.378906 629.398438 1061.609375 628.589844 C 1059.585938 626.453125 1056.914062 624.730469 1058.503906 620.921875 C 1060.183594 616.910156 1062.234375 614.191406 1067.175781 613.964844 C 1075.328125 613.585938 1083.246094 615.816406 1091.433594 615.554688 C 1094.808594 615.445312 1097.847656 619.238281 1099.917969 622.457031 C 1101.207031 624.464844 1102.4375 625.566406 1105.027344 626.367188 C 1112.503906 628.675781 1116.375 635.511719 1121 641.226562 C 1121.585938 641.953125 1121.136719 644.074219 1122.296875 644.191406 C 1133.558594 645.316406 1138.929688 656.25 1148.660156 659.84375 C 1150.304688 660.453125 1151.914062 661.359375 1153.613281 661.566406 C 1157.390625 662.03125 1160.621094 662.164062 1162.132812 656.984375 C 1163.132812 653.566406 1166.121094 651.035156 1163.144531 647.066406 C 1161.875 645.371094 1163.140625 643.882812 1165.621094 644.125 C 1167.945312 644.351562 1169.402344 642.855469 1170.617188 641.09375 C 1172.84375 641.253906 1175.3125 641.859375 1175.679688 638.523438 C 1175.71875 638.1875 1175.132812 637.464844 1174.820312 637.457031 C 1172.683594 637.410156 1172.554688 639.578125 1171.445312 640.6875 C 1171.246094 640.886719 1171.046875 641.078125 1170.847656 641.273438 C 1168.28125 641.894531 1166.941406 639.203125 1164.546875 638.972656 C 1163.160156 638.835938 1162.429688 637.128906 1162.964844 635.4375 C 1166.273438 624.988281 1164.0625 613.695312 1168.550781 603.199219 C 1170.320312 599.058594 1168.839844 593.09375 1170.113281 588.246094 C 1172.476562 579.230469 1172.261719 569.753906 1175.46875 560.910156 C 1176.664062 557.621094 1173.777344 554.5 1174.949219 550.703125 C 1177 544.300781 1177.550781 537.773438 1176.59375 531.117188 C 1176.28125 529.058594 1177.035156 527.160156 1177.777344 525.1875 C 1179.386719 520.933594 1180.542969 516.46875 1178.855469 511.941406 C 1177.984375 509.59375 1178.207031 507.160156 1178.609375 504.992188 C 1180.730469 493.59375 1182.054688 482.082031 1183.824219 470.636719 C 1184.539062 466.023438 1184.015625 460.714844 1189.0625 457.367188 C 1190.179688 456.625 1189.488281 453.144531 1189.632812 450.890625 C 1186.644531 450.902344 1188.152344 454.863281 1184.839844 454.808594 C 1184.570312 450.71875 1184.15625 446.554688 1184.046875 442.382812 C 1183.835938 434.226562 1182.535156 432.976562 1174.105469 433.035156 C 1172.375 433.046875 1170.445312 432.046875 1168.96875 432.558594 C 1167.371094 433.109375 1171.085938 434.554688 1169.179688 435.695312 C 1168.53125 436.085938 1167.53125 435.972656 1166.699219 435.953125 C 1164.363281 435.894531 1162.027344 435.753906 1159.695312 435.660156 C 1151.898438 435.351562 1144.148438 435.144531 1137.195312 439.710938 C 1133.382812 442.21875 1128.832031 442.796875 1124.539062 444.046875 C 1122.453125 444.652344 1118.863281 442.492188 1118.757812 447.074219 C 1118.75 447.265625 1117.015625 447.839844 1116.511719 447.535156 C 1110.453125 443.875 1104.636719 449.449219 1098.5625 447.917969 C 1096.558594 447.414062 1094.09375 448.339844 1096.472656 451.523438 C 1096.847656 452.023438 1097.882812 451.277344 1097.050781 452.105469 C 1096.28125 452.867188 1095.425781 452.335938 1094.609375 452.414062 C 1089.683594 452.898438 1084.964844 450.429688 1080 451.429688 C 1078.589844 451.714844 1077.117188 451.523438 1075.945312 452.730469 C 1073.15625 455.601562 1073.121094 455.566406 1071.050781 452.285156 C 1068.054688 451.433594 1068.242188 454.707031 1066.800781 455.84375 C 1063.226562 458.664062 1060.910156 464.167969 1055.054688 459.171875 C 1054.230469 458.472656 1051.125 459.152344 1051.40625 460.394531 C 1052.777344 466.433594 1048.082031 465.140625 1045.683594 464.804688 C 1041.277344 464.1875 1038 468.027344 1033.796875 467.109375 C 1032.234375 466.769531 1028.566406 471.023438 1029.105469 464.878906 C 1029.210938 463.675781 1025.199219 465.09375 1023.679688 466.523438 C 1022.796875 467.359375 1023.144531 470.019531 1021.179688 469.3125 C 1013.679688 466.628906 1007.449219 473.039062 999.988281 471.917969 C 996.835938 471.449219 994.402344 475.824219 990.210938 476.332031 C 984.148438 477.066406 977.910156 477.417969 971.988281 479.582031 C 967.425781 481.25 966.996094 481.367188 969.480469 485.222656 C 974.855469 493.566406 980.855469 501.542969 985.703125 510.175781 C 991.019531 519.648438 998.671875 527.699219 1001.839844 538.550781 C 1003.585938 544.539062 1008.785156 549.457031 1007.664062 556.484375 C 1007.714844 557.023438 1007.933594 557.480469 1008.324219 557.859375 C 1016.382812 555.695312 1011.785156 561.492188 1011.816406 563.773438 C 1011.925781 572.050781 1010.648438 578.644531 1002.832031 584.953125 C 994.640625 591.566406 985.378906 597.09375 978.140625 604.691406 C 973.753906 609.296875 968.785156 613.277344 964.652344 618.054688 C 961.769531 621.386719 958.472656 624.027344 955.105469 626.792969 C 951.929688 629.402344 946.488281 630.789062 947.011719 636.640625 C 941.296875 638.007812 941.800781 645.917969 936.121094 647.132812 C 932.402344 647.933594 931.636719 651.558594 929.554688 653.734375 C 927.324219 656.066406 923.785156 653.636719 922.828125 656.375 C 921.933594 658.945312 920.984375 661.347656 919.007812 663.148438 C 916.929688 665.035156 915.738281 668.136719 912.144531 668.074219 C 909.574219 668.027344 908.707031 670.449219 908.035156 672.152344 C 905.621094 678.234375 900.589844 681.441406 895.542969 684.894531 C 891.738281 687.5 888.710938 691.308594 884.773438 693.628906 C 879.042969 697 875.953125 702.964844 870.558594 706.652344 C 865.304688 710.238281 861.410156 715.464844 856.871094 719.875 C 853.28125 723.371094 849.996094 727.4375 845.335938 729.996094 C 842.0625 731.796875 841.546875 735.609375 842.292969 739.101562 C 844.003906 747.105469 841.761719 754.769531 840.71875 762.554688 C 840.050781 767.542969 836.867188 771.148438 832.605469 771.898438 C 829.214844 772.5 828.1875 774.582031 825.949219 777.8125 C 825.222656 770.804688 822.179688 767.316406 816.359375 766.175781 C 814.921875 765.894531 813.859375 763.875 812.554688 762.738281 C 808.277344 759.027344 812.929688 758.789062 814.957031 757.230469 C 813.1875 755.535156 811.546875 753.90625 809.835938 752.351562 C 808.476562 751.113281 806.910156 749.386719 807.65625 747.863281 C 810.457031 742.140625 803.894531 739.253906 803.90625 734.441406 C 803.90625 734.0625 802.488281 733.453125 801.683594 733.359375 C 801.574219 733.347656 801.46875 733.347656 801.359375 733.367188 C 801.25 733.382812 801.148438 733.414062 801.046875 733.457031 C 800.949219 733.5 800.855469 733.554688 800.769531 733.621094 C 800.683594 733.691406 800.609375 733.769531 800.542969 733.855469 C 800.480469 733.941406 800.425781 734.035156 800.386719 734.136719 C 800.34375 734.238281 800.320312 734.34375 800.304688 734.453125 C 800.292969 734.558594 800.292969 734.667969 800.308594 734.777344 C 800.320312 734.882812 800.351562 734.988281 800.390625 735.089844 C 801.910156 739.421875 796.242188 738.074219 795.621094 741.226562 C 795.308594 742.792969 793.277344 740.773438 792.425781 739.875 C 790.757812 738.109375 792.171875 735.945312 792.054688 733.96875 C 791.710938 728.179688 791.773438 728.191406 786.621094 724.214844 C 784.4375 722.527344 782.804688 719.980469 782.792969 717.546875 C 782.765625 712.730469 779.746094 709.410156 778.03125 705.457031 C 772.949219 693.730469 766.097656 682.867188 761.941406 670.632812 C 760.089844 665.1875 755.710938 660.605469 753.40625 655.097656 C 749.136719 644.886719 742.023438 636.136719 738.277344 625.652344 C 737.722656 624.289062 737.039062 622.996094 736.226562 621.769531 C 731.183594 613.46875 729.96875 613.277344 722.402344 619.574219 C 720.8125 620.847656 719.117188 621.957031 717.3125 622.898438 C 712.632812 625.46875 706.824219 626.265625 703.855469 631.710938 C 702.996094 633.28125 700.316406 634.097656 698.714844 634.585938 C 685.476562 638.632812 677.15625 649.605469 666.261719 656.886719 C 658.25 662.242188 650.136719 667.476562 641.859375 672.414062 C 638.121094 674.644531 635.433594 677.988281 631.660156 680.296875 C 624.214844 684.847656 617.332031 690.351562 609.691406 694.667969 C 608.707031 695.222656 607.433594 695.265625 606.335938 695.511719 C 607.023438 693.214844 610.699219 692.417969 609.429688 689.328125 C 609.253906 688.890625 607.710938 688.515625 607.191406 688.808594 C 603.96875 690.609375 606.886719 693.242188 606.453125 695.460938 C 608.847656 696.65625 607.507812 697.851562 606.253906 698.609375 C 602.757812 700.722656 599.085938 702.550781 595.59375 704.675781 C 590.566406 707.730469 584.089844 709.121094 582.265625 716.003906 C 582.148438 716.4375 581.421875 716.886719 580.898438 717.015625 C 571.8125 719.242188 566.363281 726.996094 559.910156 732.46875 C 547.550781 742.960938 532.148438 749.597656 521.992188 762.917969 C 519.007812 766.832031 513.511719 768.773438 509.253906 771.335938 C 497.671875 778.308594 489.871094 789.375 478.992188 796.847656 C 468.554688 804.015625 459.554688 812.855469 449.871094 820.894531 C 441.722656 821.65625 439.777344 832.074219 431.527344 832.675781 C 430.242188 837.285156 425.867188 838.960938 422.871094 841.972656 C 416.332031 848.554688 407.585938 852.367188 401.480469 859.429688 C 395.605469 859.199219 394.003906 866.113281 388.777344 867.042969 C 388.039062 867.175781 386.871094 868.074219 386.863281 868.632812 C 386.726562 876.21875 379.339844 878.429688 375.246094 882.109375 C 370.632812 886.261719 366.972656 891.433594 362.070312 895.460938 C 356.292969 900.207031 350.828125 905.972656 345.292969 911.308594 C 335.300781 920.949219 324.546875 929.804688 314.144531 939.027344 C 310.613281 942.15625 306.707031 945.246094 303.964844 948.804688 C 299.027344 955.21875 291.902344 958.90625 286.691406 964.789062 C 283.613281 968.261719 278.246094 968.183594 275.386719 972.210938 C 274.679688 973.210938 272.40625 972.585938 271.785156 971 C 270.902344 968.75 269.394531 967.019531 267.960938 965.164062 C 261.734375 957.089844 262.179688 954.773438 270.828125 948.65625 C 271.246094 948.363281 271.378906 947.660156 271.644531 947.15625 C 275.414062 950.398438 276.582031 948.011719 277.800781 944.667969 C 274.734375 944.015625 272.9375 945.027344 271.664062 947.167969 C 273.488281 942.417969 276.304688 938.4375 280.800781 935.894531 C 284.847656 933.609375 285.574219 928.839844 288.800781 925.796875 C 300.097656 915.144531 310.933594 903.996094 322.160156 893.265625 C 326.886719 888.75 331.976562 884.488281 339.039062 883.875 C 339.105469 881.03125 335.109375 882.75 334.96875 880.339844 C 334.847656 878.195312 336.972656 877.6875 338.183594 876.523438 C 342.941406 871.960938 347.703125 867.410156 352.46875 862.867188 C 353.332031 866.523438 354.652344 870.179688 350.328125 874.007812 C 357.875 873.78125 357.882812 868.257812 361.082031 865.242188 C 357.8125 863.316406 354.414062 865.949219 352.28125 863.113281 C 355.167969 859.550781 359.324219 857.273438 361.675781 852.648438 C 364.933594 861.417969 366.019531 861.316406 374.96875 852.246094 C 373.6875 851.117188 372.667969 852.21875 371.738281 852.722656 C 369.078125 854.15625 366.5625 852.984375 365.707031 850.976562 C 364.511719 848.160156 367.789062 848.429688 369.351562 847.410156 C 371.484375 846.023438 373.230469 844.039062 375.144531 842.3125 C 375.835938 845.925781 377.652344 847.878906 381.785156 846.867188 C 380.269531 843.898438 378.105469 842.417969 374.957031 842.507812 C 379.742188 835.230469 387.238281 833.210938 395.167969 832.289062 C 396.816406 828.816406 392.113281 829.1875 392.222656 826.265625 C 394.996094 825.304688 397.328125 820.117188 401.054688 825.878906 C 401.582031 826.691406 403.300781 825.800781 404.246094 825.109375 C 405.625 824.101562 404.820312 823.230469 403.9375 822.367188 C 400.417969 818.941406 403.199219 816.59375 405.496094 814.394531 C 410.257812 809.820312 415.816406 806.191406 420.863281 801.933594 C 429.125 794.960938 436.792969 787.28125 445.441406 780.742188 C 447.523438 779.167969 449.296875 777.464844 451.851562 776.433594 C 456.039062 774.742188 459.546875 772.082031 462.042969 767.984375 C 463.460938 765.589844 465.183594 763.433594 467.210938 761.519531 C 469.234375 759.605469 471.484375 758.011719 473.960938 756.730469 C 477.136719 755.117188 479.660156 752.71875 482.160156 750.253906 C 487.347656 745.144531 492.6875 740.3125 499.042969 736.527344 C 502.984375 734.179688 506.25 730.613281 509.597656 727.363281 C 517.558594 719.632812 527.578125 714.5 535.414062 706.574219 C 538.945312 703.003906 542.109375 702.695312 550.628906 702.832031 C 551.492188 699.980469 547.386719 700.550781 547.5 697.472656 C 553.355469 696.96875 556.484375 689.917969 563.339844 690.675781 C 564.15625 690.882812 564.984375 691.035156 565.773438 691.300781 C 567.132812 691.757812 568.492188 692.179688 569.4375 690.675781 C 569.691406 690.175781 569.679688 689.675781 569.414062 689.183594 C 568.410156 688 567.054688 687.632812 565.738281 688.550781 C 564.875 689.152344 564.265625 690.113281 563.542969 690.910156 C 562.785156 690.105469 560.929688 689.148438 561.792969 688.316406 C 563.789062 686.402344 565.371094 683.550781 568.769531 683.671875 C 569.058594 683.71875 569.328125 683.824219 569.574219 683.980469 C 573.601562 686.011719 575.8125 685.285156 574.945312 680.300781 C 574.644531 678.585938 575.285156 677.582031 576.578125 676.648438 C 586.398438 669.582031 596.203125 662.496094 605.992188 655.390625 C 608.339844 653.683594 609.324219 657.074219 611.640625 656.859375 C 610.578125 654.273438 608.386719 652.453125 612.488281 649.96875 C 616.925781 647.277344 620.878906 643.335938 625.019531 640.011719 C 629.191406 636.65625 634.609375 634.847656 638.390625 630.664062 C 639.308594 629.65625 640.988281 628.542969 642.148438 628.703125 C 645.648438 629.195312 646.480469 627.160156 647.46875 624.550781 C 648.730469 621.222656 652.234375 620.253906 655.015625 618.933594 C 658.574219 617.242188 663.054688 617.140625 664.160156 612.1875 C 664.210938 611.964844 664.667969 611.855469 664.800781 611.621094 C 666.722656 608.203125 675.792969 614.921875 673.464844 605.511719 C 677.027344 603.042969 680.589844 600.574219 684.132812 598.148438 C 683.691406 601.242188 684.570312 604.0625 685.15625 607.535156 C 689.664062 603.164062 683.980469 601.238281 684.097656 598.261719 C 689.335938 593.8125 691.929688 587.480469 695.648438 581.976562 C 697.164062 582.269531 697.523438 583.414062 697.242188 584.550781 C 696.308594 588.3125 699.03125 586.472656 700.253906 586.457031 C 702.296875 586.4375 701.492188 585.164062 701.046875 584.09375 C 700.484375 582.75 700.117188 581.316406 699.445312 580.035156 C 698.527344 578.28125 694.796875 577.382812 697.664062 574.550781 C 699.777344 572.46875 701.578125 568.796875 705.492188 572.109375 C 706.164062 572.679688 707.429688 572.933594 707.648438 571.878906 C 708.859375 566.019531 714.042969 569.421875 716.8125 567.742188 C 722.214844 564.472656 727.582031 567.621094 732.886719 566.820312 C 736.097656 566.335938 736.601562 570.039062 739.097656 571.089844 C 742.738281 572.621094 738.222656 574.820312 738.847656 576.820312 C 750.160156 574.671875 754.734375 576.757812 760.410156 587.40625 C 762.492188 591.316406 767.863281 592.402344 768.421875 597.398438 C 775.8125 602.0625 776.238281 612.289062 784.136719 616.804688 C 786.523438 618.167969 786.972656 622.269531 788.121094 625.023438 C 792.074219 634.507812 798.804688 642.371094 802.898438 651.632812 C 806.738281 660.308594 813.359375 667.488281 815.75 676.917969 C 817.515625 683.867188 824.019531 688.140625 826.480469 694.828125 C 827.480469 697.546875 830.449219 697.296875 831.316406 695.453125 C 833.738281 690.289062 839.90625 688.796875 842.132812 683.324219 C 842.953125 681.300781 845.597656 677.6875 849.507812 680.332031 C 851.191406 678.804688 854.953125 681.402344 855.371094 677.375 C 852.511719 676.582031 851.328125 679.117188 849.484375 680.34375 C 849.246094 676.683594 850.457031 673.914062 853.179688 671.140625 C 858.25 665.984375 862.40625 659.9375 867.425781 654.730469 C 871.339844 650.671875 875.535156 646.96875 878.527344 642.070312 C 879.105469 641.195312 879.847656 640.492188 880.753906 639.96875 C 881.660156 639.441406 882.636719 639.144531 883.6875 639.082031 C 885.941406 638.914062 887.554688 638.464844 887.347656 635.496094 C 887.152344 632.699219 890.222656 632.09375 891.765625 630.515625 C 893.449219 628.796875 895.4375 628.285156 896.097656 624.925781 C 896.949219 620.605469 902.519531 621.515625 906.203125 620.808594 C 906.132812 618.371094 903.660156 619.628906 902.46875 616.445312 C 903.335938 616.441406 904.15625 616.242188 904.929688 615.847656 C 907.355469 614.382812 911.734375 615.453125 910.480469 609.664062 C 910.0625 607.734375 914.09375 603.691406 916.886719 602.519531 C 919.910156 601.253906 919.28125 605.371094 919.796875 607.699219 C 921.210938 606.175781 922.191406 605.117188 923.167969 604.070312 C 924.160156 607.425781 926.015625 609.183594 929.585938 607.351562 C 930.710938 606.773438 931.226562 605.726562 930.453125 604.453125 C 929.699219 603.21875 928.855469 602.820312 927.917969 604.269531 C 926.273438 606.804688 924.644531 605.949219 923.003906 604.277344 C 921.046875 600.738281 919.695312 597.550781 924.402344 594.671875 C 926.183594 593.578125 926.789062 590.710938 928.242188 588.90625 C 930.886719 585.617188 933.136719 581.171875 939.882812 585.414062 C 937.398438 579.933594 939.140625 576.898438 941.710938 573.898438 C 948.335938 566.175781 953.902344 557.527344 962.367188 551.4375 C 964.132812 550.171875 964.71875 547.382812 966.265625 545.671875 C 968.003906 543.757812 969.878906 541.878906 972.515625 540.992188 C 979.355469 538.703125 979.339844 538.65625 975.046875 533.332031 C 974.863281 533.105469 974.746094 532.75 974.511719 532.648438 C 970.105469 530.679688 971.726562 523.9375 965.382812 522.496094 C 961.667969 521.648438 958.816406 516.246094 955.945312 512.601562 C 950.554688 505.757812 945.5 498.664062 940.789062 491.316406 C 935.949219 483.753906 929.976562 476.945312 925.332031 469.15625 C 923.84375 466.671875 922.175781 465.511719 924.4375 462.578125 C 925.214844 461.570312 925.886719 458.378906 921.441406 458.53125 C 917.925781 458.648438 916.675781 453.679688 914.804688 450.941406 C 913.550781 449.105469 917.183594 447.535156 918.917969 446.046875 C 922.515625 442.914062 926.625 440.75 931.242188 439.550781 C 945.960938 435.925781 960.183594 430.625 975.324219 428.179688 C 982.984375 426.945312 990.789062 423.59375 998.546875 421.253906 C 999.925781 420.8125 1001.328125 420.46875 1002.753906 420.21875 C 1023.75 416.929688 1044.253906 411.558594 1064.601562 405.550781 C 1066.007812 405.132812 1067.382812 404.203125 1068.769531 404.207031 C 1083.273438 404.238281 1096.164062 397.019531 1110.277344 395.144531 C 1123.875 393.339844 1136.941406 388.921875 1150.261719 385.738281 C 1164.183594 382.410156 1178.296875 380.707031 1192.535156 379.472656 C 1199.660156 378.855469 1206.730469 378.144531 1213.878906 378.46875 C 1221.164062 378.796875 1220.976562 378.855469 1223.65625 385.570312 C 1225.066406 389.105469 1226.472656 392.921875 1230.03125 395.039062 C 1232.578125 396.558594 1231.539062 399.179688 1232.363281 401.152344 C 1238.261719 415.273438 1237.207031 430.09375 1237.4375 444.851562 C 1237.808594 468.683594 1235.835938 492.457031 1236.007812 516.265625 C 1236.085938 527.074219 1233.695312 537.597656 1232.417969 548.210938 C 1231.160156 558.660156 1231.050781 569.210938 1229.066406 579.609375 C 1224.921875 601.308594 1224.058594 623.453125 1219.703125 645.222656 C 1216.46875 661.390625 1213.554688 677.867188 1213.171875 694.585938 C 1212.988281 702.652344 1211.328125 710.675781 1210.363281 718.707031 C 1209.195312 728.425781 1204.601562 736.777344 1195.777344 742.167969 C 1194.503906 742.945312 1192.941406 744.402344 1191.910156 743.714844 C 1185.664062 739.546875 1176.238281 740.515625 1172.699219 732.101562 C 1171.359375 728.917969 1169.050781 728.4375 1165.976562 727.988281 C 1155.214844 726.421875 1145.714844 720.703125 1135.21875 718.152344 C 1134.679688 718.023438 1133.941406 717.671875 1133.765625 717.234375 C 1131.015625 710.410156 1125.132812 712.101562 1119.9375 712.191406 C 1116.609375 712.246094 1114.5625 708.417969 1110.898438 709.351562 C 1111.585938 708.878906 1112.308594 708.457031 1112.941406 707.925781 C 1113.894531 707.121094 1116.0625 706.695312 1114.378906 704.835938 C 1113.507812 703.871094 1112.796875 702.613281 1110.8125 703 C 1104.03125 704.332031 1100.757812 703.214844 1096.460938 699.464844 C 1093.453125 696.84375 1091.859375 692.578125 1086.476562 692.519531 C 1084.246094 692.492188 1082.433594 688.648438 1081.699219 685.671875 C 1080.984375 682.761719 1079.707031 680.246094 1075.898438 678.796875 C 1074.492188 687.179688 1069.695312 694.15625 1064.960938 700.316406 C 1060.089844 706.65625 1058.507812 716.246094 1049.300781 719.019531 C 1048.707031 719.171875 1048.25 719.507812 1047.929688 720.03125 C 1043.621094 731.320312 1033.046875 738.003906 1027.183594 748.375 C 1024.441406 753.230469 1019.527344 757.566406 1015.960938 762.40625 C 1011.464844 768.515625 1006.253906 774.023438 1002.074219 780.449219 C 999.566406 784.304688 994.554688 786.492188 992.871094 791.359375 C 986.429688 791.851562 987.042969 800.328125 981.289062 801.597656 C 979.476562 809.140625 972.390625 812.179688 967.523438 816.882812 C 957.980469 826.109375 950.4375 836.78125 942.855469 847.464844 C 941.632812 849.183594 940.679688 850.652344 938.761719 851.628906 C 936.96875 852.542969 934.398438 853.648438 933.9375 855.195312 C 931.367188 863.863281 922.332031 866.945312 918.152344 874.480469 C 914.121094 881.75 908.84375 888.519531 903.824219 895.257812 C 901.105469 898.914062 898.839844 903.785156 893.226562 904.761719 C 890.886719 905.167969 889.425781 907.460938 888.078125 909.34375 C 885.464844 912.988281 887.039062 919.632812 880.203125 920.253906 C 881.875 927.089844 875.664062 929.59375 872.480469 933.503906 C 868.417969 938.492188 863.464844 943.101562 859.820312 948.140625 C 852.710938 957.980469 841.300781 963.832031 836.03125 975.09375 C 835.367188 976.519531 833.882812 976.984375 832.75 977.878906 C 829.363281 980.558594 822.738281 989.136719 820.601562 994.234375 C 819.886719 995.953125 818.832031 996.160156 817.585938 996.808594 C 813.984375 998.75 811.070312 1001.4375 808.84375 1004.871094 C 807.183594 1007.359375 805.515625 1009.5625 803.03125 1011.171875 C 801.332031 1012.273438 799.40625 1013.136719 800.5 1015.902344 C 800.984375 1017.125 800.019531 1017.976562 798.660156 1018.265625 C 792.941406 1019.472656 789.925781 1023.582031 788.59375 1028.765625 C 787.941406 1031.292969 786.015625 1031.472656 784.679688 1032.761719 C 782.039062 1035.324219 775.15625 1034.050781 776.9375 1040.855469 C 776.992188 1041.0625 775.605469 1041.671875 774.867188 1042.050781 C 769.5 1044.800781 763.4375 1046.003906 759.417969 1051.542969 C 757.695312 1053.921875 754.054688 1055.898438 750.242188 1056.203125 C 747.519531 1056.417969 746.007812 1056.003906 743.640625 1053.878906 C 733.757812 1045.019531 726.660156 1034.316406 720.488281 1022.800781 C 719.707031 1021.339844 718.871094 1020.214844 716.488281 1020.3125 C 710.800781 1020.539062 703.566406 1022.519531 703.867188 1012.546875 C 703.90625 1011.273438 702.050781 1011.457031 701.140625 1010.863281 C 699.941406 1010.082031 698.007812 1009.679688 697.925781 1008.121094 C 697.535156 1000.996094 693.054688 996.066406 689.660156 990.339844 C 687.855469 987.292969 685.164062 984.644531 684.007812 981.171875 Z M 376.546875 1049.449219 C 379.164062 1049.890625 381.496094 1051.933594 385.808594 1051.269531 C 382.355469 1048.503906 380.195312 1045.925781 376.808594 1046.359375 C 374.140625 1046.695312 376.132812 1048.339844 376.550781 1049.441406 C 374.136719 1049.445312 371.339844 1047.398438 369.136719 1050.507812 C 372.355469 1052.878906 373.894531 1048.164062 376.546875 1049.449219 Z M 1075.691406 658.628906 C 1073.625 651.722656 1068.773438 649.71875 1062.117188 649.683594 C 1065.054688 651.949219 1062.84375 656.359375 1065.316406 657.777344 C 1068.132812 659.382812 1071.886719 659.539062 1075.691406 658.628906 Z M 1197.679688 443.839844 C 1197.597656 442.488281 1197.476562 441.335938 1197.46875 440.183594 C 1197.457031 438.832031 1198.21875 436.898438 1196.269531 436.648438 C 1194.015625 436.359375 1193.65625 438.308594 1193.546875 440.144531 C 1193.460938 441.535156 1192.335938 443.554688 1193.667969 444.179688 C 1197.335938 445.910156 1190.308594 451.003906 1195.5 450.832031 C 1199.550781 450.699219 1196.566406 446.019531 1197.679688 443.835938 Z M 1195.648438 459.023438 C 1197.191406 458.757812 1198.480469 458.089844 1198.621094 456.464844 C 1198.738281 455.105469 1197.507812 454.660156 1196.429688 454.398438 C 1195.207031 454.101562 1193.980469 454.488281 1193.800781 455.78125 C 1193.613281 457.144531 1194.046875 458.535156 1195.648438 459.023438 Z M 744.945312 626.824219 C 745.203125 623.402344 743.734375 621.992188 739.964844 621.324219 Z M 685.730469 964.226562 C 684.835938 964.371094 683.871094 964.699219 684.304688 965.773438 C 684.824219 967.054688 686.242188 966.828125 687.355469 966.933594 C 688.324219 967.023438 689.125 966.597656 688.664062 965.492188 C 688.144531 964.246094 686.910156 964.1875 685.730469 964.226562 Z M 540.523438 710.835938 C 540.699219 709.496094 540.148438 708.710938 538.761719 708.792969 C 538.007812 708.839844 536.625 709.128906 536.625 709.316406 C 536.617188 709.65625 536.664062 709.988281 536.769531 710.3125 C 536.875 710.636719 537.027344 710.933594 537.234375 711.203125 C 537.441406 711.476562 537.683594 711.703125 537.96875 711.890625 C 538.25 712.082031 538.558594 712.214844 538.886719 712.300781 C 539.828125 712.582031 540.273438 711.667969 540.523438 710.835938 Z M 787.789062 961.394531 C 788.871094 961.335938 789.660156 960.808594 789.359375 959.792969 C 788.902344 958.253906 787.527344 957.617188 786.027344 957.5625 C 785.800781 957.535156 785.585938 957.5625 785.375 957.640625 C 785.164062 957.71875 784.984375 957.84375 784.832031 958.007812 C 784.679688 958.175781 784.578125 958.367188 784.519531 958.585938 C 784.464844 958.804688 784.460938 959.023438 784.507812 959.242188 C 784.878906 960.964844 786.449219 961.117188 787.789062 961.394531 Z M 1187.394531 547.691406 C 1188.640625 547.367188 1189.320312 546.496094 1188.722656 545.242188 C 1188.308594 544.472656 1187.671875 544.003906 1186.8125 543.839844 C 1186.527344 543.820312 1186.25 543.867188 1185.980469 543.972656 C 1185.714844 544.078125 1185.480469 544.238281 1185.285156 544.449219 C 1185.089844 544.660156 1184.949219 544.902344 1184.859375 545.175781 C 1184.773438 545.453125 1184.75 545.730469 1184.789062 546.015625 C 1184.90625 547.386719 1186.054688 547.75 1187.394531 547.691406 Z M 366.332031 872.535156 C 365.09375 872.605469 365 873.449219 365.011719 874.25 C 365.03125 875.261719 365.765625 875.660156 366.660156 875.699219 C 367.40625 875.730469 368.488281 875.808594 368.332031 874.699219 C 368.261719 874.160156 368.042969 873.695312 367.675781 873.296875 C 367.308594 872.902344 366.863281 872.648438 366.332031 872.535156 Z M 804.445312 925.84375 C 805.601562 925.359375 806.722656 925.039062 807.644531 924.421875 C 808.039062 924.160156 807.535156 923.496094 806.773438 923.570312 C 805.671875 923.675781 804.324219 923.40625 803.804688 924.792969 C 803.542969 925.492188 803.929688 925.890625 804.445312 925.84375 Z M 295.21875 928.121094 C 295.058594 927.632812 294.898438 927.144531 294.738281 926.660156 C 293.730469 927.566406 292.671875 928.421875 291.738281 929.398438 C 291.214844 929.941406 291.5 930.644531 292.210938 930.546875 C 292.554688 930.523438 292.886719 930.445312 293.207031 930.320312 C 293.53125 930.191406 293.824219 930.019531 294.09375 929.804688 C 294.363281 929.585938 294.59375 929.335938 294.785156 929.046875 C 294.976562 928.761719 295.121094 928.449219 295.21875 928.121094 Z M 1169.203125 664.769531 C 1169.515625 666.265625 1170.742188 666.265625 1171.871094 666.371094 C 1172.769531 666.457031 1173.84375 666.351562 1172.898438 665.148438 C 1172.253906 664.332031 1171.511719 663.121094 1170.140625 663.472656 C 1169.742188 663.574219 1169.511719 664.316406 1169.203125 664.769531 Z M 685.09375 956.839844 C 685.15625 956.425781 685.082031 956.039062 684.875 955.675781 C 684.664062 955.316406 684.367188 955.058594 683.976562 954.910156 C 683.007812 954.507812 682.332031 954.878906 682.507812 955.960938 C 682.628906 956.6875 682.949219 957.652344 683.496094 957.980469 C 684.429688 958.535156 684.894531 957.703125 685.09375 956.835938 Z M 939.511719 592.199219 C 940.367188 592.074219 941.289062 591.855469 941.128906 590.773438 C 940.992188 589.84375 940.132812 589.550781 939.257812 589.648438 C 938.363281 589.75 937.515625 590.195312 937.632812 591.1875 C 937.746094 592.136719 938.667969 592.25 939.511719 592.195312 Z M 598.402344 668.988281 C 597.167969 669.1875 596.464844 669.820312 596.496094 670.75 C 596.503906 670.972656 596.554688 671.1875 596.644531 671.394531 C 596.734375 671.597656 596.859375 671.78125 597.015625 671.941406 C 597.171875 672.101562 597.351562 672.226562 597.558594 672.316406 C 597.761719 672.410156 597.972656 672.464844 598.199219 672.476562 C 599.226562 672.5625 599.980469 671.859375 599.769531 670.882812 C 599.605469 670.148438 598.832031 669.550781 598.402344 668.988281 Z M 1186.6875 441.179688 L 1187.75 442.386719 C 1188.039062 441.898438 1188.335938 441.410156 1188.621094 440.917969 C 1189 440.265625 1188.878906 439.632812 1188.210938 439.558594 C 1187.132812 439.433594 1186.78125 440.242188 1186.6875 441.179688 Z M 952.804688 568.691406 C 952.195312 568.277344 951.71875 567.75 951.496094 567.839844 C 950.769531 568.128906 950.128906 568.550781 949.574219 569.105469 C 949.132812 569.5625 949.46875 570.328125 949.960938 570.179688 C 950.921875 569.882812 951.78125 569.25 952.804688 568.691406 Z M 819.460938 924.066406 C 819.230469 923.59375 819.0625 922.570312 818.5 922.261719 C 817.625 921.785156 817.019531 922.660156 816.78125 923.453125 C 816.425781 924.640625 816.894531 925.671875 818.097656 925.921875 C 819.050781 926.117188 819.300781 925.179688 819.460938 924.066406 Z M 701.519531 1001.417969 C 701.195312 1001.804688 700.636719 1002.171875 700.597656 1002.585938 C 700.558594 1002.90625 700.675781 1003.152344 700.949219 1003.320312 C 701.222656 1003.492188 701.496094 1003.488281 701.765625 1003.3125 C 702.265625 1003.066406 702.585938 1002.675781 702.734375 1002.140625 C 702.792969 1001.523438 702.203125 1001.265625 701.519531 1001.417969 Z M 711.554688 586.660156 C 711.484375 585.746094 711.046875 585.074219 710.097656 585.109375 C 709.679688 585.125 709.273438 585.609375 708.867188 585.878906 C 709.414062 586.453125 709.871094 587.175781 710.53125 587.546875 C 711.050781 587.839844 711.511719 587.332031 711.554688 586.660156 Z M 711.554688 586.660156 " fill-opacity="1" fill-rule="nonzero"/></g><path fill="#ffffff" d="M 1148.019531 439.449219 C 1148.804688 439.304688 1149.1875 439.523438 1148.984375 440.023438 C 1148.925781 440.160156 1148.480469 440.207031 1148.21875 440.183594 C 1147.664062 440.140625 1147.117188 440.03125 1146.566406 439.949219 C 1147.050781 439.78125 1147.535156 439.613281 1148.019531 439.449219 Z M 1148.019531 439.449219 " fill-opacity="1" fill-rule="nonzero"/><path fill="#ffffff" d="M 684.011719 981.179688 C 685.117188 978.617188 681.335938 976.800781 683.03125 973.601562 C 686.304688 976.046875 684.871094 978.660156 683.988281 981.226562 C 683.964844 981.261719 684.011719 981.179688 684.011719 981.179688 Z M 684.011719 981.179688 " fill-opacity="1" fill-rule="nonzero"/><path fill="#ffffff" d="M 802.425781 745.871094 L 800.65625 746.902344 C 800.519531 746.433594 800.125 745.695312 800.285156 745.542969 C 800.832031 744.953125 801.496094 744.558594 802.273438 744.359375 C 802.996094 744.257812 803.164062 744.90625 802.425781 745.871094 Z M 802.425781 745.871094 " fill-opacity="1" fill-rule="nonzero"/></svg>